<svg id="Layer_1" height="512" viewBox="0 0 512 512" width="512" xmlns="http://www.w3.org/2000/svg" data-name="Layer 1"><path d="m290.849 314.438a6 6 0 0 0 -8.455.717l-39.4 46.71a6.006 6.006 0 0 0 -1.391 4.4l11.57 129.235a6 6 0 0 0 5.969 5.465c.179 0 .361-.008.542-.024a6 6 0 0 0 5.442-6.511l-11.35-126.74 37.79-44.8a6 6 0 0 0 -.717-8.452z"/><path d="m230.635 336.773a6 6 0 0 0 -8.34 1.565l-37.534 54.869a6.012 6.012 0 0 0 -.908 2.1l-21.216 96.438a6 6 0 1 0 11.721 2.578l20.965-95.3 36.877-53.91a6 6 0 0 0 -1.565-8.34z"/><path d="m335.7 344.178a6 6 0 0 0 -8.484-.112l-33.676 32.8a6 6 0 0 0 -1.658 5.655l25.074 108.011a6 6 0 1 0 11.689-2.714l-24.311-104.718 31.253-30.439a6 6 0 0 0 .113-8.483z"/><path d="m465.784 429.783a6 6 0 1 0 11.059-4.658l-18.226-43.279-11.059 4.654z"/><path d="m36.254 119.062c-3.327 9.786-1.372 19.936 5.979 31.028 1.058 1.363 14.6 18.334 47.268 38.1 31.372 18.99 87.27 44.5 175.412 58.214.111.017.218.045.326.068a304.79 304.79 0 0 1 33.319 0l-11.46-6.653a1170.9 1170.9 0 0 1 -104.006-63.455c-52.316-36.142-86.466-67.892-102.074-94.8-10.938 4.52-37.953 17.466-44.764 37.498z"/><path d="m95.441 26.8c-.081.075-.179.162-.264.233-9.033 7.49-12.9 16.187-11.821 26.586a51.338 51.338 0 0 0 5.5 17.37 5.944 5.944 0 0 1 .372.724c13.092 25.6 47.284 57.882 100.6 94.724a1156.715 1156.715 0 0 0 102.982 62.835c.072.038.142.077.212.117l7.958 4.62-191.92-215.909a60.95 60.95 0 0 0 -13.619 8.7z"/><path d="m377.979 279.672-14.944 4.88a46.541 46.541 0 0 0 -25.1 19.731l-18.581 30.04c21.462 11.963 42.383 16.691 61.865 13.775a73.483 73.483 0 0 0 35.3-15.39c-5.133-22.839-18.046-40.558-38.54-53.036z"/><path d="m231.182 68.422c-28.354-35.731-57.336-54.968-86.142-57.177-1.827-.141-3.619-.206-5.366-.206a69.416 69.416 0 0 0 -18.58 2.538l194.25 218.528c-16.905-65.728-81.163-159.342-84.162-163.683z"/><path d="m251.475 259.668-182.875 107.573c51.941 10.133 101.549-5.7 135.179-21.637 40.011-18.952 66.584-42.018 66.848-42.249a6 6 0 0 1 8.1.182 217.134 217.134 0 0 0 30.373 24.549l18.629-30.115a58.551 58.551 0 0 1 31.58-24.826l3.547-1.159a166.524 166.524 0 0 0 -34.609-10c-35.719-6.561-70.11-3.096-76.772-2.318z"/><path d="m437.56 338.945a21.967 21.967 0 1 0 21.967 21.967 21.991 21.991 0 0 0 -21.967-21.967z"/></svg>